<svg width="38" height="8" viewBox="0 0 38 8" fill="none" xmlns="http://www.w3.org/2000/svg">
<path d="M1 6.89773V1.07955H2.40625V3.41477H4.69886V1.07955H6.10227V6.89773H4.69886V4.55966H2.40625V6.89773H1Z" fill="url(#paint0_linear)"/>
<path d="M6.98438 6.89773V1.07955H11.0412V2.22159H8.39062V3.41477H10.8338V4.55966H8.39062V5.75568H11.0412V6.89773H6.98438Z" fill="url(#paint1_linear)"/>
<path d="M13.3452 1.07955L14.4077 2.91761H14.4531L15.527 1.07955H17.1009L15.3452 3.98864L17.1577 6.89773H15.544L14.4531 5.03977H14.4077L13.3168 6.89773H11.7145L13.5185 3.98864L11.7599 1.07955H13.3452Z" fill="url(#paint2_linear)"/>
<path d="M20.2223 3.4517V4.52273H17.5291V3.4517H20.2223Z" fill="url(#paint3_linear)"/>
<path d="M21.2031 6.89773V1.07955H23.6065C24.0421 1.07955 24.4181 1.15814 24.7344 1.31534C25.0526 1.47064 25.2978 1.69413 25.4702 1.9858C25.6425 2.27557 25.7287 2.61932 25.7287 3.01705C25.7287 3.42045 25.6406 3.76326 25.4645 4.04545C25.2884 4.32576 25.0384 4.53977 24.7145 4.6875C24.3906 4.83333 24.0071 4.90625 23.5639 4.90625H22.044V3.7983H23.3026C23.5147 3.7983 23.6918 3.77083 23.8338 3.71591C23.9777 3.65909 24.0866 3.57386 24.1605 3.46023C24.2344 3.3447 24.2713 3.19697 24.2713 3.01705C24.2713 2.83712 24.2344 2.68845 24.1605 2.57102C24.0866 2.4517 23.9777 2.36269 23.8338 2.30398C23.6899 2.24337 23.5128 2.21307 23.3026 2.21307H22.6094V6.89773H21.2031ZM24.4787 4.23864L25.9276 6.89773H24.3935L22.973 4.23864H24.4787Z" fill="url(#paint4_linear)"/>
<path d="M30.3182 2.98011C30.286 2.8608 30.2386 2.75568 30.1761 2.66477C30.1136 2.57197 30.0369 2.49337 29.946 2.42898C29.8551 2.36458 29.7509 2.31629 29.6335 2.28409C29.5161 2.25 29.3873 2.23295 29.2472 2.23295C28.965 2.23295 28.7206 2.30114 28.5142 2.4375C28.3097 2.57386 28.1515 2.77273 28.0398 3.03409C27.928 3.29356 27.8722 3.6089 27.8722 3.98011C27.8722 4.35322 27.9261 4.6714 28.0341 4.93466C28.142 5.19792 28.2983 5.39867 28.5028 5.53693C28.7074 5.67519 28.9555 5.74432 29.2472 5.74432C29.5047 5.74432 29.7225 5.70265 29.9006 5.61932C30.0805 5.53409 30.2169 5.41383 30.3097 5.25852C30.4025 5.10322 30.4489 4.92045 30.4489 4.71023L30.7102 4.74148H29.2955V3.71591H31.804V4.4858C31.804 5.00663 31.6932 5.45265 31.4716 5.82386C31.2519 6.19508 30.9489 6.48011 30.5625 6.67898C30.178 6.87784 29.7358 6.97727 29.2358 6.97727C28.6809 6.97727 28.1932 6.85701 27.7727 6.61648C27.3523 6.37595 27.0246 6.03314 26.7898 5.58807C26.5549 5.1411 26.4375 4.6108 26.4375 3.99716C26.4375 3.51989 26.5085 3.09659 26.6506 2.72727C26.7926 2.35606 26.9905 2.04167 27.2443 1.78409C27.5 1.52652 27.7955 1.33144 28.1307 1.19886C28.4678 1.06629 28.8305 1 29.2188 1C29.5559 1 29.8693 1.0483 30.1591 1.14489C30.4508 1.24148 30.7083 1.37784 30.9318 1.55398C31.1572 1.73011 31.34 1.93939 31.4801 2.18182C31.6203 2.42424 31.7074 2.69034 31.7415 2.98011H30.3182Z" fill="url(#paint5_linear)"/>
<path d="M32.6328 6.89773V1.07955H35.0589C35.4946 1.07955 35.8591 1.1411 36.1527 1.2642C36.4482 1.38731 36.6697 1.55966 36.8175 1.78125C36.9671 2.00284 37.0419 2.25947 37.0419 2.55114C37.0419 2.77273 36.9955 2.97064 36.9027 3.14489C36.8099 3.31723 36.6821 3.46023 36.5192 3.57386C36.3563 3.6875 36.1678 3.76705 35.9538 3.8125V3.86932C36.1887 3.88068 36.4055 3.94413 36.6044 4.05966C36.8052 4.17519 36.9661 4.33617 37.0874 4.54261C37.2086 4.74716 37.2692 4.98958 37.2692 5.26989C37.2692 5.58239 37.1896 5.86174 37.0305 6.10795C36.8714 6.35227 36.6413 6.54545 36.3402 6.6875C36.0391 6.82765 35.6735 6.89773 35.2436 6.89773H32.6328ZM34.0391 5.7642H34.9084C35.2133 5.7642 35.4377 5.70644 35.5817 5.59091C35.7275 5.47538 35.8004 5.31439 35.8004 5.10795C35.8004 4.95833 35.7654 4.82955 35.6953 4.72159C35.6252 4.61174 35.5258 4.52746 35.397 4.46875C35.2682 4.40814 35.1139 4.37784 34.9339 4.37784H34.0391V5.7642ZM34.0391 3.47159H34.8175C34.9709 3.47159 35.1072 3.44602 35.2266 3.39489C35.3459 3.34375 35.4387 3.26989 35.505 3.1733C35.5732 3.0767 35.6072 2.96023 35.6072 2.82386C35.6072 2.62879 35.5381 2.47538 35.3999 2.36364C35.2616 2.25189 35.075 2.19602 34.8402 2.19602H34.0391V3.47159Z" fill="url(#paint6_linear)"/>
<defs>
<linearGradient id="paint0_linear" x1="0.614293" y1="12.2642" x2="41.8266" y2="13.4567" gradientUnits="userSpaceOnUse">
<stop stop-color="#4148D0"/>
<stop offset="0.607925" stop-color="#EB616A"/>
<stop offset="0.608025" stop-color="#F16266"/>
<stop offset="0.608125" stop-color="#F76363"/>
<stop offset="0.611682" stop-color="#CFF534"/>
<stop offset="0.650793" stop-color="#7EE889"/>
<stop offset="0.682292" stop-color="#50C128"/>
<stop offset="0.77762" stop-color="#3F80FF"/>
<stop offset="0.900774" stop-color="#4148D0"/>
</linearGradient>
<linearGradient id="paint1_linear" x1="0.614293" y1="12.2642" x2="41.8266" y2="13.4567" gradientUnits="userSpaceOnUse">
<stop stop-color="#4148D0"/>
<stop offset="0.607925" stop-color="#EB616A"/>
<stop offset="0.608025" stop-color="#F16266"/>
<stop offset="0.608125" stop-color="#F76363"/>
<stop offset="0.611682" stop-color="#CFF534"/>
<stop offset="0.650793" stop-color="#7EE889"/>
<stop offset="0.682292" stop-color="#50C128"/>
<stop offset="0.77762" stop-color="#3F80FF"/>
<stop offset="0.900774" stop-color="#4148D0"/>
</linearGradient>
<linearGradient id="paint2_linear" x1="0.614293" y1="12.2642" x2="41.8266" y2="13.4567" gradientUnits="userSpaceOnUse">
<stop stop-color="#4148D0"/>
<stop offset="0.607925" stop-color="#EB616A"/>
<stop offset="0.608025" stop-color="#F16266"/>
<stop offset="0.608125" stop-color="#F76363"/>
<stop offset="0.611682" stop-color="#CFF534"/>
<stop offset="0.650793" stop-color="#7EE889"/>
<stop offset="0.682292" stop-color="#50C128"/>
<stop offset="0.77762" stop-color="#3F80FF"/>
<stop offset="0.900774" stop-color="#4148D0"/>
</linearGradient>
<linearGradient id="paint3_linear" x1="0.614293" y1="12.2642" x2="41.8266" y2="13.4567" gradientUnits="userSpaceOnUse">
<stop stop-color="#4148D0"/>
<stop offset="0.607925" stop-color="#EB616A"/>
<stop offset="0.608025" stop-color="#F16266"/>
<stop offset="0.608125" stop-color="#F76363"/>
<stop offset="0.611682" stop-color="#CFF534"/>
<stop offset="0.650793" stop-color="#7EE889"/>
<stop offset="0.682292" stop-color="#50C128"/>
<stop offset="0.77762" stop-color="#3F80FF"/>
<stop offset="0.900774" stop-color="#4148D0"/>
</linearGradient>
<linearGradient id="paint4_linear" x1="0.614293" y1="12.2642" x2="41.8266" y2="13.4567" gradientUnits="userSpaceOnUse">
<stop stop-color="#4148D0"/>
<stop offset="0.607925" stop-color="#EB616A"/>
<stop offset="0.608025" stop-color="#F16266"/>
<stop offset="0.608125" stop-color="#F76363"/>
<stop offset="0.611682" stop-color="#CFF534"/>
<stop offset="0.650793" stop-color="#7EE889"/>
<stop offset="0.682292" stop-color="#50C128"/>
<stop offset="0.77762" stop-color="#3F80FF"/>
<stop offset="0.900774" stop-color="#4148D0"/>
</linearGradient>
<linearGradient id="paint5_linear" x1="0.614293" y1="12.2642" x2="41.8266" y2="13.4567" gradientUnits="userSpaceOnUse">
<stop stop-color="#4148D0"/>
<stop offset="0.607925" stop-color="#EB616A"/>
<stop offset="0.608025" stop-color="#F16266"/>
<stop offset="0.608125" stop-color="#F76363"/>
<stop offset="0.611682" stop-color="#CFF534"/>
<stop offset="0.650793" stop-color="#7EE889"/>
<stop offset="0.682292" stop-color="#50C128"/>
<stop offset="0.77762" stop-color="#3F80FF"/>
<stop offset="0.900774" stop-color="#4148D0"/>
</linearGradient>
<linearGradient id="paint6_linear" x1="0.614293" y1="12.2642" x2="41.8266" y2="13.4567" gradientUnits="userSpaceOnUse">
<stop stop-color="#4148D0"/>
<stop offset="0.607925" stop-color="#EB616A"/>
<stop offset="0.608025" stop-color="#F16266"/>
<stop offset="0.608125" stop-color="#F76363"/>
<stop offset="0.611682" stop-color="#CFF534"/>
<stop offset="0.650793" stop-color="#7EE889"/>
<stop offset="0.682292" stop-color="#50C128"/>
<stop offset="0.77762" stop-color="#3F80FF"/>
<stop offset="0.900774" stop-color="#4148D0"/>
</linearGradient>
</defs>
</svg>
